<svg width="48" height="48" viewBox="0 0 48 48" fill="none" xmlns="http://www.w3.org/2000/svg">
<g clip-path="url(#clip0)">
<path d="M16.2219 32.7779C15.9659 32.7779 15.7099 32.6799 15.5139 32.4859C15.1239 32.0959 15.1239 31.4619 15.5139 31.0719L31.0699 15.5159C31.4599 15.1259 32.0939 15.1259 32.4839 15.5159C32.8739 15.9059 32.8739 16.5399 32.4839 16.9299L16.9279 32.4859C16.7339 32.6799 16.4779 32.7779 16.2219 32.7779Z" fill="#0A0A0A"/>
<path d="M31.7779 32.7779C31.5219 32.7779 31.2659 32.6799 31.0699 32.4859L15.5139 16.9279C15.1239 16.5379 15.1239 15.9039 15.5139 15.5139C15.9039 15.1239 16.5379 15.1239 16.9279 15.5139L32.4839 31.0699C32.8739 31.4599 32.8739 32.0939 32.4839 32.4839C32.2899 32.6799 32.0339 32.7779 31.7779 32.7779Z" fill="#0A0A0A"/>
<path d="M35.52 44.02H12.52C12.17 44.02 11.846 43.838 11.664 43.538L0.16402 24.538C-0.0279805 24.22 -0.0279805 23.822 0.16402 23.502L11.664 4.50202C11.846 4.20402 12.17 4.02002 12.52 4.02002H35.52C35.87 4.02002 36.194 4.20202 36.376 4.50202L47.876 23.502C48.068 23.82 48.068 24.218 47.876 24.538L36.376 43.538C36.196 43.838 35.87 44.02 35.52 44.02ZM13.084 42.02H34.958L45.852 24.02L34.958 6.02002H13.084L2.19002 24.02L13.084 42.02Z" fill="#0A0A0A"/>
</g>
<defs>
<clipPath id="clip0">
<rect width="48" height="48" fill="white"/>
</clipPath>
</defs>
</svg>
