<svg width="48" height="48" viewBox="0 0 48 48" fill="none" xmlns="http://www.w3.org/2000/svg">
<path d="M36 16.5C34.22 16.5 32.4799 17.0278 30.9999 18.0168C29.5198 19.0057 28.3663 20.4113 27.6851 22.0558C27.0039 23.7004 26.8257 25.51 27.1729 27.2558C27.5202 29.0016 28.3774 30.6053 29.636 31.8639C30.8947 33.1226 32.4983 33.9798 34.2442 34.327C35.99 34.6743 37.7996 34.4961 39.4441 33.8149C41.0887 33.1337 42.4943 31.9801 43.4832 30.5001C44.4721 29.0201 45 27.28 45 25.5C44.9973 23.1139 44.0482 20.8262 42.361 19.139C40.6737 17.4518 38.3861 16.5027 36 16.5ZM36 33C34.5166 33 33.0666 32.5601 31.8332 31.736C30.5999 30.9119 29.6386 29.7405 29.0709 28.3701C28.5032 26.9997 28.3547 25.4917 28.6441 24.0368C28.9335 22.582 29.6478 21.2456 30.6967 20.1967C31.7456 19.1478 33.082 18.4335 34.5368 18.1441C35.9917 17.8547 37.4997 18.0032 38.8701 18.5709C40.2405 19.1386 41.4119 20.0998 42.236 21.3332C43.0601 22.5666 43.5 24.0166 43.5 25.5C43.4977 27.4884 42.7068 29.3947 41.3008 30.8008C39.8947 32.2068 37.9884 32.9977 36 33Z" fill="#0A0A0A"/>
<path d="M36 23.25H37.5C37.6989 23.25 37.8897 23.171 38.0303 23.0303C38.171 22.8897 38.25 22.6989 38.25 22.5C38.25 22.3011 38.171 22.1103 38.0303 21.9697C37.8897 21.829 37.6989 21.75 37.5 21.75H36.75V21C36.75 20.8011 36.671 20.6103 36.5303 20.4697C36.3897 20.329 36.1989 20.25 36 20.25C35.8011 20.25 35.6103 20.329 35.4697 20.4697C35.329 20.6103 35.25 20.8011 35.25 21V21.879C34.7498 22.0561 34.3283 22.4042 34.0599 22.862C33.7916 23.3197 33.6936 23.8575 33.7833 24.3805C33.873 24.9035 34.1447 25.3779 34.5503 25.72C34.9559 26.0621 35.4694 26.2498 36 26.25C36.1989 26.25 36.3897 26.329 36.5303 26.4697C36.671 26.6103 36.75 26.8011 36.75 27C36.75 27.1989 36.671 27.3897 36.5303 27.5303C36.3897 27.671 36.1989 27.75 36 27.75H34.5C34.3011 27.75 34.1103 27.829 33.9697 27.9697C33.829 28.1103 33.75 28.3011 33.75 28.5C33.75 28.6989 33.829 28.8897 33.9697 29.0303C34.1103 29.171 34.3011 29.25 34.5 29.25H35.25V30C35.25 30.1989 35.329 30.3897 35.4697 30.5303C35.6103 30.671 35.8011 30.75 36 30.75C36.1989 30.75 36.3897 30.671 36.5303 30.5303C36.671 30.3897 36.75 30.1989 36.75 30V29.121C37.2502 28.9439 37.6717 28.5958 37.9401 28.138C38.2084 27.6803 38.3064 27.1425 38.2167 26.6195C38.127 26.0965 37.8553 25.6221 37.4497 25.28C37.0441 24.9379 36.5306 24.7502 36 24.75C35.8011 24.75 35.6103 24.671 35.4697 24.5303C35.329 24.3897 35.25 24.1989 35.25 24C35.25 23.8011 35.329 23.6103 35.4697 23.4697C35.6103 23.329 35.8011 23.25 36 23.25Z" fill="#0A0A0A"/>
<path d="M43.0264 34.9987L27.8336 38.9625L24.4437 37.6065L26.3193 37.1398C26.9093 36.9925 27.4233 36.6307 27.7612 36.1251C28.0991 35.6195 28.2366 35.0061 28.147 34.4047C28.0574 33.8032 27.747 33.2566 27.2764 32.8714C26.8058 32.4862 26.2087 32.29 25.6014 32.3211L12.7646 33L9.75 32.9978V32.25C9.75 32.0511 9.67099 31.8603 9.53033 31.7197C9.38968 31.579 9.19892 31.5 9 31.5H4.06069L9.31069 26.25H15C15.0985 26.25 15.196 26.2306 15.287 26.1929C15.378 26.1552 15.4607 26.1 15.5303 26.0303L26.5606 15H33C33.0985 15 33.196 14.9806 33.287 14.9429C33.378 14.9052 33.4607 14.85 33.5304 14.7803L44.25 4.06069V6.75C44.25 6.94891 44.329 7.13968 44.4697 7.28033C44.6103 7.42098 44.8011 7.5 45 7.5C45.1989 7.5 45.3897 7.42098 45.5303 7.28033C45.671 7.13968 45.75 6.94891 45.75 6.75V2.25C45.75 2.05109 45.671 1.86032 45.5303 1.71967C45.3897 1.57902 45.1989 1.5 45 1.5H40.5C40.3011 1.5 40.1103 1.57902 39.9697 1.71967C39.829 1.86032 39.75 2.05109 39.75 2.25C39.75 2.44891 39.829 2.63968 39.9697 2.78033C40.1103 2.92098 40.3011 3 40.5 3H43.1893L32.6893 13.5H26.25C26.1515 13.5 26.054 13.5194 25.963 13.5571C25.872 13.5948 25.7893 13.65 25.7197 13.7197L14.6894 24.75H9C8.90151 24.75 8.80398 24.7694 8.71298 24.8071C8.62199 24.8448 8.53931 24.9 8.46966 24.9697L1.71966 31.7197C1.64991 31.7892 1.5946 31.8719 1.5569 31.9629C1.51921 32.0539 1.49987 32.1515 1.5 32.25V45.75C1.5 45.9489 1.57902 46.1397 1.71967 46.2803C1.86032 46.421 2.05109 46.5 2.25 46.5H9C9.19892 46.5 9.38968 46.421 9.53033 46.2803C9.67099 46.1397 9.75 45.9489 9.75 45.75V44.9011L14.25 44.2624L26.8626 47.23C27.0091 47.2645 27.1627 47.254 27.3032 47.2L44.7876 40.4753C45.4747 40.211 46.0345 39.6937 46.3522 39.0297C46.67 38.3656 46.7214 37.6051 46.496 36.9043C46.2706 36.2035 45.7855 35.6156 45.1403 35.2612C44.495 34.9068 43.7386 34.8129 43.0263 34.9987H43.0264ZM8.25 45H3V33H8.25V45ZM12.8238 34.499L25.6781 33.8187C25.8496 33.8101 26.0202 33.8483 26.1716 33.9291C26.3231 34.01 26.4497 34.1304 26.538 34.2777C26.6263 34.4249 26.6729 34.5934 26.6729 34.765C26.6728 34.9367 26.6262 35.1051 26.5378 35.2523C26.4742 35.3591 26.39 35.4522 26.2901 35.5262C26.1902 35.6003 26.0767 35.6538 25.956 35.6836L18.5685 37.5219C18.4723 37.5452 18.3817 37.5872 18.3018 37.6456C18.222 37.704 18.1544 37.7776 18.1031 37.8622C18.0518 37.9468 18.0178 38.0407 18.003 38.1385C17.9881 38.2363 17.9928 38.3361 18.0167 38.4321C18.0406 38.5281 18.0832 38.6185 18.1422 38.6979C18.2011 38.7774 18.2752 38.8444 18.3602 38.8951C18.4452 38.9458 18.5393 38.9791 18.6372 38.9933C18.7352 39.0074 18.8349 39.0021 18.9308 38.9775L21.9534 38.2253L27.5053 40.4461C27.6541 40.5056 27.8181 40.5158 27.9731 40.4754L43.4044 36.4498C43.7456 36.3615 44.1077 36.407 44.4164 36.577C44.7252 36.747 44.9572 37.0286 45.0651 37.3641C45.1729 37.6997 45.1484 38.0638 44.9965 38.3818C44.8446 38.6998 44.5769 38.9478 44.2481 39.0748L26.9813 45.7169L14.4563 42.77C14.3655 42.7485 14.2715 42.7443 14.1791 42.7575L9.75 43.3861V34.4978L12.8238 34.499Z" fill="#0A0A0A"/>
</svg>
