<svg width="48" height="48" viewBox="0 0 48 48" fill="none" xmlns="http://www.w3.org/2000/svg">
<path d="M24 48C10.766 48 0 37.234 0 24C0 10.766 10.766 0 24 0C37.234 0 48 10.766 48 24C48 37.234 37.234 48 24 48ZM24 2C11.87 2 2 11.87 2 24C2 36.13 11.87 46 24 46C36.13 46 46 36.13 46 24C46 11.87 36.13 2 24 2Z" fill="#0A0A0A"/>
<path d="M34.9996 36C34.7436 36 34.4876 35.902 34.2916 35.708L23.2916 24.708C23.1056 24.52 22.9996 24.266 22.9996 24V9C22.9996 8.448 23.4476 8 23.9996 8C24.5516 8 24.9996 8.448 24.9996 9V23.586L35.7076 34.294C36.0976 34.684 36.0976 35.318 35.7076 35.708C35.5116 35.902 35.2556 36 34.9996 36Z" fill="#0A0A0A"/>
</svg>
