<svg width="48" height="48" viewBox="0 0 48 48" fill="none" xmlns="http://www.w3.org/2000/svg">
<path d="M19.5 5.25H21C21 4.0095 22.0095 3 23.25 3V1.5C22.0192 1.5 20.934 2.1045 20.25 3.02325C19.566 2.1045 18.4808 1.5 17.25 1.5V3C18.4905 3 19.5 4.0095 19.5 5.25Z" fill="#0A0A0A"/>
<path d="M20.4602 24.8684C19.6007 25.7594 18.4607 26.2499 17.2502 26.2499C16.0397 26.2499 14.8997 25.7594 14.0402 24.8684L12.9609 25.9102C14.1054 27.0959 15.6287 27.7499 17.2502 27.7499C18.8717 27.7499 20.3949 27.0959 21.5402 25.9094L20.4602 24.8684Z" fill="#0A0A0A"/>
<path d="M24.0002 37.4999C22.7897 37.4999 21.6497 37.0094 20.7902 36.1184L19.7109 37.1602C20.8554 38.3459 22.3787 38.9999 24.0002 38.9999C25.6217 38.9999 27.1449 38.3459 28.2902 37.1594L27.2109 36.1177C26.3507 37.0094 25.2107 37.4999 24.0002 37.4999Z" fill="#0A0A0A"/>
<path d="M35.0397 25.9094L33.9604 24.8677C33.1002 25.7594 31.9602 26.2499 30.7497 26.2499C29.5392 26.2499 28.3992 25.7594 27.5397 24.8684L26.4604 25.9102C27.6049 27.0959 29.1282 27.7499 30.7497 27.7499C32.3712 27.7499 33.8945 27.0959 35.0397 25.9094Z" fill="#0A0A0A"/>
<path d="M44.25 16.5H41.6362L34.3605 6.31425C34.0785 5.91975 33.4215 5.91975 33.1395 6.31425L31.3958 8.75475L28.38 4.09275C28.2413 3.879 28.0042 3.75 27.75 3.75C27.4958 3.75 27.2587 3.879 27.1208 4.09275L19.092 16.5H13.5V13.4948C13.7025 13.341 13.8907 13.167 14.0602 12.972C14.553 13.311 15.1418 13.5 15.75 13.5C17.4045 13.5 18.75 12.1545 18.75 10.5C18.75 9.327 18.06 8.2965 17.0535 7.809C17.1825 7.473 17.25 7.1145 17.25 6.75C17.25 5.06475 15.8595 3.7065 14.1555 3.7515C13.8225 2.4585 12.6458 1.5 11.25 1.5C9.85425 1.5 8.6775 2.4585 8.3445 3.7515C6.66375 3.7035 5.25 5.06475 5.25 6.75C5.25 7.1145 5.3175 7.473 5.4465 7.809C4.44 8.2965 3.75 9.327 3.75 10.5C3.75 12.1545 5.0955 13.5 6.75 13.5C7.35825 13.5 7.947 13.311 8.43975 12.972C8.60925 13.1662 8.7975 13.341 9 13.4948V16.5H3.75V18H6V27.6097C6 36.7477 12.534 44.517 21.537 46.083L23.871 46.4888C23.9137 46.4963 23.9573 46.5 24 46.5C24.0427 46.5 24.0863 46.4963 24.1283 46.4888L26.4622 46.083C35.466 44.517 42 36.7485 42 27.6097V18H44.25V16.5ZM33.75 8.04075L39.7927 16.5H27.7073L33.75 8.04075ZM27.75 5.88075L30.4583 10.068L25.8638 16.5H20.8785L27.75 5.88075ZM8.631 11.07C8.60925 11.0685 8.58825 11.0677 8.56725 11.0677C8.32875 11.0677 8.10225 11.1817 7.9605 11.3767C7.67175 11.7727 7.23075 12 6.75 12C5.92275 12 5.25 11.3273 5.25 10.5C5.25 9.72 5.86425 9.0675 6.648 9.0135C6.93525 8.994 7.1865 8.811 7.293 8.544C7.3995 8.277 7.344 7.971 7.14975 7.75875C6.89175 7.4775 6.75 7.11975 6.75 6.75C6.75 5.92275 7.42275 5.25 8.25 5.25C8.412 5.25 8.57775 5.2815 8.7585 5.34675C8.99625 5.43375 9.26025 5.394 9.46275 5.2425C9.66525 5.091 9.77775 4.84875 9.762 4.596C9.762 4.57725 9.75225 4.51875 9.75 4.5C9.75 3.67275 10.4227 3 11.25 3C12.0773 3 12.75 3.67275 12.75 4.47825C12.7478 4.497 12.7387 4.57725 12.7372 4.596C12.7215 4.848 12.834 5.091 13.0365 5.2425C13.239 5.394 13.5037 5.43375 13.7407 5.34675C13.9215 5.2815 14.088 5.25 14.25 5.25C15.0773 5.25 15.75 5.92275 15.75 6.75C15.75 7.11975 15.6082 7.4775 15.3502 7.75875C15.156 7.971 15.0997 8.27625 15.207 8.544C15.3142 8.81175 15.5647 8.994 15.852 9.0135C16.6357 9.0675 17.25 9.72 17.25 10.5C17.25 11.3273 16.5773 12 15.75 12C15.2692 12 14.8282 11.7727 14.5402 11.376C14.3857 11.1637 14.1315 11.0468 13.869 11.0693C13.6073 11.0918 13.3763 11.25 13.26 11.4855C12.8767 12.2655 12.1065 12.75 11.25 12.75C10.3935 12.75 9.62325 12.2655 9.23925 11.4862C9.12375 11.25 8.89275 11.0925 8.631 11.07ZM10.5 14.172C10.7438 14.2215 10.9942 14.25 11.25 14.25C11.5058 14.25 11.7563 14.2222 12 14.172V16.5H10.5V14.172ZM40.5 27.6097C40.5 36.0165 34.488 43.164 26.2058 44.6048L24 44.9888L21.7943 44.6055C13.512 43.1647 7.5 36.0173 7.5 27.6097V18H40.5V27.6097Z" fill="#0A0A0A"/>
<path d="M37.5 19.5H39V21H37.5V19.5Z" fill="#0A0A0A"/>
<path d="M34.5 19.5H36V21H34.5V19.5Z" fill="#0A0A0A"/>
<path d="M31.5 19.5H33V21H31.5V19.5Z" fill="#0A0A0A"/>
</svg>
