<svg width="48" height="48" viewBox="0 0 48 48" fill="none" xmlns="http://www.w3.org/2000/svg">
<path d="M24.627 26.1963C24.5382 26.177 24.4471 26.1736 24.3571 26.187C23.4556 26.0821 22.7755 25.3194 22.774 24.4121C22.774 23.9773 22.4214 23.6247 21.9866 23.6247C21.5518 23.6247 21.1993 23.9773 21.1993 24.4121C21.2016 25.9272 22.215 27.2543 23.6759 27.6552V28.4426C23.6759 28.8774 24.0284 29.2299 24.4632 29.2299C24.898 29.2299 25.2506 28.8774 25.2506 28.4426V27.7029C26.9367 27.35 28.0827 25.7795 27.9055 24.0661C27.7279 22.3526 26.2843 21.0505 24.5616 21.0501C23.5744 21.0501 22.774 20.2497 22.774 19.2624C22.774 18.2752 23.5744 17.4748 24.5616 17.4748C25.5489 17.4748 26.3493 18.2752 26.3493 19.2624C26.3493 19.6973 26.7018 20.0498 27.1366 20.0498C27.5714 20.0498 27.924 19.6973 27.924 19.2624C27.9217 17.6716 26.8072 16.2995 25.2506 15.9712V15.2546C25.2506 14.8198 24.898 14.4673 24.4632 14.4673C24.0284 14.4673 23.6759 14.8198 23.6759 15.2546V16.0193C22.0512 16.4629 21.0055 18.0403 21.2293 19.7096C21.453 21.3788 22.8774 22.6248 24.5616 22.6244C25.5358 22.6244 26.3305 23.4044 26.3481 24.3782C26.3662 25.352 25.6004 26.1609 24.627 26.1963Z" fill="#0A0A0A"/>
<path d="M13.144 21.8977C13.144 28.2033 18.2556 33.3149 24.5612 33.3149C30.8668 33.3149 35.9784 28.2033 35.9784 21.8977C35.9784 15.592 30.8668 10.4805 24.5612 10.4805C18.2587 10.4874 13.1513 15.5951 13.144 21.8977ZM24.5612 12.0551C29.9972 12.0551 34.4037 16.4616 34.4037 21.8977C34.4037 27.3337 29.9972 31.7402 24.5612 31.7402C19.1252 31.7402 14.7187 27.3337 14.7187 21.8977C14.7249 16.4643 19.1279 12.0613 24.5612 12.0551Z" fill="#0A0A0A"/>
<path d="M39.8597 35.2561L33.692 38.1702C32.8405 36.5863 31.207 35.5783 29.4094 35.5275L23.7158 35.3711C22.8142 35.3453 21.9296 35.1169 21.1281 34.7029L20.5487 34.4026C17.5824 32.8564 14.0466 32.8603 11.0834 34.4126L11.1195 33.1002C11.1314 32.6654 10.7889 32.3032 10.3541 32.2913L4.11073 32.1194C3.67592 32.1075 3.31416 32.4501 3.30224 32.8849L2.92511 46.5856C2.91319 47.0204 3.25573 47.3826 3.69053 47.3945L9.93388 47.5664H9.95541C10.3821 47.5664 10.7312 47.2269 10.7427 46.8005L10.7608 46.1451L12.3828 45.2766C13.0194 44.9341 13.7637 44.8526 14.4592 45.0494L24.1448 47.7678C24.1617 47.7728 24.1786 47.7766 24.1959 47.7805C24.896 47.927 25.6095 48.0004 26.3246 48C27.8393 48.0008 29.3363 47.6744 30.713 47.0424C30.7468 47.027 30.7795 47.0089 30.8106 46.9885L44.854 37.9049C45.2038 37.6785 45.3168 37.2191 45.1119 36.8562C44.0693 35.0062 41.7569 34.3015 39.8597 35.2561ZM4.52093 45.8421L4.85462 33.7153L9.52368 33.8437L9.18998 45.9709L4.52093 45.8421ZM30.0037 45.6361C28.2933 46.408 26.383 46.621 24.5446 46.2454L14.8851 43.5339C13.7979 43.2268 12.6342 43.354 11.6397 43.8888L10.8108 44.3328L11.0326 36.2699C13.6591 34.523 17.0276 34.3434 19.8248 35.8009L20.4042 36.1011C21.4168 36.624 22.5336 36.9123 23.6727 36.9454L29.3667 37.1018C30.966 37.148 32.3242 38.2867 32.6487 39.8537L24.1675 39.6195C23.7327 39.6076 23.3709 39.9505 23.3586 40.385C23.3467 40.8198 23.6896 41.1819 24.124 41.1938L33.4837 41.4514H33.5056C33.9319 41.451 34.2806 41.1116 34.2922 40.6856C34.3018 40.3434 34.2764 40.0009 34.216 39.6641L40.542 36.6751C40.5482 36.6724 40.5543 36.6693 40.5605 36.6662C41.4578 36.2122 42.5427 36.3641 43.2808 37.0472L30.0037 45.6361Z" fill="#0A0A0A"/>
<path d="M25.3486 8.26705V0.787338C25.3486 0.352534 24.9961 0 24.5613 0C24.1265 0 23.7739 0.352534 23.7739 0.787338V8.26705C23.7739 8.70186 24.1265 9.05439 24.5613 9.05439C24.9961 9.05439 25.3486 8.70186 25.3486 8.26705Z" fill="#0A0A0A"/>
<path d="M31.2534 8.26688V4.72386C31.2534 4.28906 30.9009 3.93652 30.4661 3.93652C30.0312 3.93652 29.6787 4.28906 29.6787 4.72386V8.26688C29.6787 8.70169 30.0312 9.05422 30.4661 9.05422C30.9009 9.05422 31.2534 8.70169 31.2534 8.26688Z" fill="#0A0A0A"/>
<path d="M19.4438 8.26688V4.72386C19.4438 4.28906 19.0913 3.93652 18.6565 3.93652C18.2217 3.93652 17.8691 4.28906 17.8691 4.72386V8.26688C17.8691 8.70169 18.2217 9.05422 18.6565 9.05422C19.0913 9.05422 19.4438 8.70169 19.4438 8.26688Z" fill="#0A0A0A"/>
</svg>
