<svg width="48" height="48" viewBox="0 0 48 48" fill="none" xmlns="http://www.w3.org/2000/svg">
<path d="M47.7008 36L38.25 28.4392V33H31.491C32.7173 31.368 33.6045 29.5072 34.0823 27.5205L36.75 26.8305V21.1657L34.086 20.4915C33.7208 18.9705 33.1185 17.5222 32.2898 16.173L33.7013 13.8052L29.6933 9.798L27.3255 11.2087C25.977 10.3807 24.5288 9.77775 23.0078 9.4125L22.3335 6.75H16.6658L15.9915 9.414C14.4705 9.77925 13.0223 10.3815 11.6738 11.2102L9.306 9.7995L5.298 13.8067L6.7095 16.1745C5.8815 17.523 5.2785 18.972 4.91325 20.493L2.25 21.1665V26.8327L4.9155 27.513C5.403 29.544 6.3075 31.398 7.51725 33H0.75V39H19.5H38.25V43.5607L47.7008 36ZM2.25 37.5V34.5H8.8215C10.0343 35.7285 11.4495 36.7455 13.0103 37.5H2.25ZM19.5 37.5C13.1288 37.5 7.56975 32.9782 6.28125 26.7487L6.186 26.2897L3.75 25.6672V22.3335L6.1845 21.7177L6.27975 21.2572C6.62175 19.6012 7.2735 18.0337 8.217 16.5982L8.475 16.206L7.185 14.0415L9.5415 11.685L11.706 12.9757L12.0983 12.7178C13.5338 11.7743 15.1013 11.1225 16.7573 10.7805L17.2178 10.6852L17.8335 8.25H21.1658L21.7815 10.6845L22.242 10.7797C23.898 11.1217 25.4655 11.7735 26.901 12.717L27.2933 12.975L29.4578 11.6842L31.8143 14.0408L30.5243 16.2052L30.7823 16.5975C31.7258 18.033 32.3775 19.6005 32.7195 21.2565L32.8148 21.717L35.25 22.3335V25.6687L32.8118 26.2995L32.7173 26.7562C32.235 29.0782 31.14 31.227 29.5523 32.9992H24.8813C27.9413 31.1632 30 27.822 30 24C30 18.21 25.29 13.5 19.5 13.5C13.71 13.5 9 18.21 9 24C9 29.79 13.71 34.5 19.5 34.5H39.75V31.5607L45.2993 36L39.75 40.4392V37.5H19.5ZM19.5 33C14.5373 33 10.5 28.9627 10.5 24C10.5 19.0372 14.5373 15 19.5 15C24.4628 15 28.5 19.0372 28.5 24C28.5 28.9627 24.4628 33 19.5 33Z" fill="#0A0A0A"/>
<path d="M13.928 21.7674L12.5353 21.2109C12.329 21.7269 12.1805 22.2662 12.0928 22.8137L13.5748 23.0492C13.6438 22.6119 13.763 22.1807 13.928 21.7674Z" fill="#0A0A0A"/>
<path d="M13.5116 24.3804L12.0146 24.4726C12.0491 25.0284 12.1451 25.5796 12.3019 26.1121L13.7411 25.6906C13.6166 25.2654 13.5394 24.8244 13.5116 24.3804Z" fill="#0A0A0A"/>
<path d="M12.9448 27.6465C13.2156 28.1318 13.5403 28.587 13.9101 29.0003L15.0276 27.9998C14.7313 27.669 14.4711 27.3045 14.2551 26.916L12.9448 27.6465Z" fill="#0A0A0A"/>
<path d="M21.75 24C21.75 23.0235 21.1208 22.1985 20.25 21.888V16.5H18.75V21.888C17.8793 22.1985 17.25 23.0235 17.25 24C17.25 25.2405 18.2595 26.25 19.5 26.25C19.8465 26.25 20.1705 26.1653 20.4638 26.0243L22.7198 28.2803L23.7803 27.2197L21.5243 24.9637C21.6653 24.6705 21.75 24.3465 21.75 24ZM19.5 24.75C19.0868 24.75 18.75 24.4132 18.75 24C18.75 23.5868 19.0868 23.25 19.5 23.25C19.9133 23.25 20.25 23.5868 20.25 24C20.25 24.4132 19.9133 24.75 19.5 24.75Z" fill="#0A0A0A"/>
</svg>
