<svg width="48" height="48" viewBox="0 0 48 48" fill="none" xmlns="http://www.w3.org/2000/svg">
<g clip-path="url(#clip0)">
<path d="M47 48H1C0.448 48 0 47.552 0 47C0 46.448 0.448 46 1 46H47C47.552 46 48 46.448 48 47C48 47.552 47.552 48 47 48Z" fill="#0A0A0A"/>
<path d="M12.9998 48H2.99976C2.44776 48 1.99976 47.552 1.99976 47V36C1.99976 34.898 2.89576 34 3.99976 34H11.9998C13.1038 34 13.9998 34.898 13.9998 36V47C13.9998 47.552 13.5518 48 12.9998 48ZM3.99976 46H11.9998V36H3.99976V46Z" fill="#0A0A0A"/>
<path d="M29 48.0001H19C18.448 48.0001 18 47.5521 18 47.0001V24C18 22.898 18.896 22 20 22H28C29.104 22 30 22.898 30 24V47.0001C30 47.5521 29.552 48.0001 29 48.0001ZM20 46.0001H28V24H20V46.0001Z" fill="#0A0A0A"/>
<path d="M45.0002 48H35.0002C34.4482 48 34.0002 47.552 34.0002 47V28C34.0002 26.898 34.8962 26 36.0002 26H44.0002C45.1042 26 46.0002 26.898 46.0002 28V47C46.0002 47.552 45.5522 48 45.0002 48ZM36.0002 46H44.0002V28H36.0002V46Z" fill="#0A0A0A"/>
<path d="M5.0005 22.0003C4.7445 22.0003 4.4885 21.9023 4.2925 21.7083C3.9025 21.3183 3.9025 20.6843 4.2925 20.2943L14.2925 10.2943C14.5405 10.0463 14.8985 9.94226 15.2425 10.0303L30.6945 13.8923L42.2945 2.29226C42.6845 1.90226 43.3185 1.90226 43.7085 2.29226C44.0985 2.68226 44.0985 3.31626 43.7085 3.70626L31.7085 15.7063C31.4625 15.9543 31.1025 16.0543 30.7585 15.9683L15.3065 12.1083L5.7065 21.7083C5.5125 21.9023 5.2565 22.0003 5.0005 22.0003Z" fill="#0A0A0A"/>
<path d="M43.0002 12C42.4482 12 42.0002 11.552 42.0002 11V4H35.0002C34.4482 4 34.0002 3.552 34.0002 3C34.0002 2.448 34.4482 2 35.0002 2H43.0002C43.5522 2 44.0002 2.448 44.0002 3V11C44.0002 11.552 43.5522 12 43.0002 12Z" fill="#0A0A0A"/>
</g>
<defs>
<clipPath id="clip0">
<rect width="48" height="48" fill="white"/>
</clipPath>
</defs>
</svg>
